<mxfile host="app.diagrams.net" modified="2022-03-27T04:27:51.065Z" agent="5.0 (Windows NT 10.0; WOW64) AppleWebKit/537.36 (KHTML, like Gecko) Chrome/86.0.4240.198 Safari/537.36" etag="vOJGw1AN8HTjroVFsr5b" version="16.6.5" type="github">
  <diagram name="Page-1" id="c37626ed-c26b-45fb-9056-f9ebc6bb27b6">
    <mxGraphModel dx="673" dy="620" grid="1" gridSize="10" guides="1" tooltips="1" connect="1" arrows="1" fold="1" page="1" pageScale="1" pageWidth="1100" pageHeight="850" background="none" math="0" shadow="0">
      <root>
        <mxCell id="0" />
        <mxCell id="1" parent="0" />
        <mxCell id="OzK-UFkC3OUow5rZLLYQ-5" style="edgeStyle=orthogonalEdgeStyle;rounded=0;orthogonalLoop=1;jettySize=auto;html=1;endArrow=none;endFill=0;strokeWidth=2;exitX=0.5;exitY=1;exitDx=0;exitDy=0;" parent="1" source="z__uo_qV3F-Jt_0EM9Vv-1" target="OzK-UFkC3OUow5rZLLYQ-7" edge="1">
          <mxGeometry relative="1" as="geometry">
            <Array as="points">
              <mxPoint x="361" y="220" />
              <mxPoint x="523" y="220" />
            </Array>
          </mxGeometry>
        </mxCell>
        <mxCell id="OzK-UFkC3OUow5rZLLYQ-6" value="&lt;span style=&quot;background-color: rgb(248 , 249 , 250)&quot;&gt;Kali&lt;/span&gt;" style="points=[];aspect=fixed;html=1;align=center;shadow=0;dashed=0;image;image=img/lib/allied_telesis/computer_and_terminals/Personal_Computer.svg;fillColor=#F20F2D;strokeWidth=2;" parent="1" vertex="1">
          <mxGeometry x="170" y="250" width="45.6" height="61.800000000000004" as="geometry" />
        </mxCell>
        <mxCell id="OzK-UFkC3OUow5rZLLYQ-7" value="&lt;span style=&quot;background-color: rgb(248 , 249 , 250)&quot;&gt;windows XP2&lt;/span&gt;" style="points=[];aspect=fixed;html=1;align=center;shadow=0;dashed=0;image;image=img/lib/allied_telesis/computer_and_terminals/Personal_Computer.svg;fillColor=#F20F2D;strokeWidth=2;" parent="1" vertex="1">
          <mxGeometry x="500" y="250" width="45.6" height="61.8" as="geometry" />
        </mxCell>
        <mxCell id="OzK-UFkC3OUow5rZLLYQ-9" value="192.168.0.147" style="rounded=0;whiteSpace=wrap;html=1;strokeWidth=2;" parent="1" vertex="1">
          <mxGeometry x="140" y="340" width="120" height="30" as="geometry" />
        </mxCell>
        <mxCell id="OzK-UFkC3OUow5rZLLYQ-10" value="192.168.0.132" style="rounded=0;whiteSpace=wrap;html=1;strokeWidth=2;" parent="1" vertex="1">
          <mxGeometry x="301.2" y="340" width="120" height="30" as="geometry" />
        </mxCell>
        <mxCell id="OzK-UFkC3OUow5rZLLYQ-11" value="192.168.0.173" style="rounded=0;whiteSpace=wrap;html=1;strokeWidth=2;" parent="1" vertex="1">
          <mxGeometry x="462.8" y="340" width="120" height="30" as="geometry" />
        </mxCell>
        <mxCell id="z__uo_qV3F-Jt_0EM9Vv-1" value="192.168.0.1" style="image;html=1;image=img/lib/clip_art/networking/Wireless_Router_128x128.png" vertex="1" parent="1">
          <mxGeometry x="321.2" y="80" width="80" height="80" as="geometry" />
        </mxCell>
        <mxCell id="z__uo_qV3F-Jt_0EM9Vv-2" value="&lt;span style=&quot;background-color: rgb(248 , 249 , 250)&quot;&gt;真实主机2&lt;br&gt;dhcp&lt;br&gt;&lt;/span&gt;" style="points=[];aspect=fixed;html=1;align=center;shadow=0;dashed=0;image;image=img/lib/allied_telesis/computer_and_terminals/Personal_Computer.svg;fillColor=#F20F2D;strokeWidth=2;" vertex="1" parent="1">
          <mxGeometry x="610" y="250" width="45.6" height="61.800000000000004" as="geometry" />
        </mxCell>
        <mxCell id="z__uo_qV3F-Jt_0EM9Vv-3" value="&lt;span style=&quot;background-color: rgb(248 , 249 , 250)&quot;&gt;真实主机1&lt;br&gt;dhcp&lt;br&gt;&lt;/span&gt;" style="points=[];aspect=fixed;html=1;align=center;shadow=0;dashed=0;image;image=img/lib/allied_telesis/computer_and_terminals/Personal_Computer.svg;fillColor=#F20F2D;strokeWidth=2;" vertex="1" parent="1">
          <mxGeometry x="60.00000000000001" y="250" width="45.6" height="61.800000000000004" as="geometry" />
        </mxCell>
        <mxCell id="z__uo_qV3F-Jt_0EM9Vv-5" style="edgeStyle=orthogonalEdgeStyle;rounded=0;orthogonalLoop=1;jettySize=auto;html=1;endArrow=none;endFill=0;strokeWidth=2;" edge="1" parent="1" source="z__uo_qV3F-Jt_0EM9Vv-3" target="z__uo_qV3F-Jt_0EM9Vv-1">
          <mxGeometry relative="1" as="geometry">
            <mxPoint x="225.60000000000002" y="290.9" as="sourcePoint" />
            <mxPoint x="340" y="290.6" as="targetPoint" />
            <Array as="points">
              <mxPoint x="83" y="220" />
              <mxPoint x="361" y="220" />
            </Array>
          </mxGeometry>
        </mxCell>
        <mxCell id="z__uo_qV3F-Jt_0EM9Vv-6" value="" style="edgeStyle=orthogonalEdgeStyle;rounded=0;orthogonalLoop=1;jettySize=auto;html=1;endArrow=none;endFill=0;strokeWidth=2;" edge="1" parent="1" source="OzK-UFkC3OUow5rZLLYQ-6" target="z__uo_qV3F-Jt_0EM9Vv-1">
          <mxGeometry relative="1" as="geometry">
            <mxPoint x="215.60000000000002" y="280.9" as="sourcePoint" />
            <mxPoint x="361" y="160" as="targetPoint" />
            <Array as="points">
              <mxPoint x="193" y="220" />
              <mxPoint x="361" y="220" />
            </Array>
          </mxGeometry>
        </mxCell>
        <mxCell id="z__uo_qV3F-Jt_0EM9Vv-7" style="edgeStyle=orthogonalEdgeStyle;rounded=0;orthogonalLoop=1;jettySize=auto;html=1;endArrow=none;endFill=0;strokeWidth=2;" edge="1" parent="1" source="z__uo_qV3F-Jt_0EM9Vv-2" target="z__uo_qV3F-Jt_0EM9Vv-1">
          <mxGeometry relative="1" as="geometry">
            <mxPoint x="235.60000000000002" y="300.9" as="sourcePoint" />
            <mxPoint x="350" y="300.6" as="targetPoint" />
            <Array as="points">
              <mxPoint x="633" y="220" />
              <mxPoint x="361" y="220" />
            </Array>
          </mxGeometry>
        </mxCell>
        <mxCell id="z__uo_qV3F-Jt_0EM9Vv-13" value="" style="endArrow=none;html=1;rounded=0;entryX=0.5;entryY=1;entryDx=0;entryDy=0;startArrow=none;strokeWidth=2;" edge="1" parent="1" source="OzK-UFkC3OUow5rZLLYQ-8" target="z__uo_qV3F-Jt_0EM9Vv-1">
          <mxGeometry width="50" height="50" relative="1" as="geometry">
            <mxPoint x="360" y="410" as="sourcePoint" />
            <mxPoint x="370" y="290" as="targetPoint" />
          </mxGeometry>
        </mxCell>
        <mxCell id="OzK-UFkC3OUow5rZLLYQ-8" value="&lt;span style=&quot;background-color: rgb(248 , 249 , 250)&quot;&gt;windows XP1&lt;/span&gt;" style="points=[];aspect=fixed;html=1;align=center;shadow=0;dashed=0;image;image=img/lib/allied_telesis/computer_and_terminals/Personal_Computer_with_Server.svg;fillColor=#F20F2D;strokeWidth=2;" parent="1" vertex="1">
          <mxGeometry x="330" y="249.4" width="62.400000000000006" height="62.400000000000006" as="geometry" />
        </mxCell>
        <mxCell id="z__uo_qV3F-Jt_0EM9Vv-14" value="" style="endArrow=none;html=1;rounded=0;exitX=0.509;exitY=-0.017;exitDx=0;exitDy=0;exitPerimeter=0;" edge="1" parent="1" source="OzK-UFkC3OUow5rZLLYQ-8">
          <mxGeometry width="50" height="50" relative="1" as="geometry">
            <mxPoint x="360" y="410" as="sourcePoint" />
            <mxPoint x="362" y="250" as="targetPoint" />
          </mxGeometry>
        </mxCell>
      </root>
    </mxGraphModel>
  </diagram>
</mxfile>
